<svg width="32" height="32" viewBox="0 0 32 32" fill="none" xmlns="http://www.w3.org/2000/svg">
<path d="M7.27108 10.5C7.27108 14.25 13.8494 16.25 13.8494 16.25C13.8494 16.25 12.8373 17.5 11.5723 17.5C10.3072 17.5 9.80121 16.5 8.28313 16.5C6.76506 16.5 5.5 17.25 5.5 19C5.5 20.75 6.76506 24.5 10.5602 24.5C14.3554 24.5 16.3795 18.5 16.3795 18.5C16.3795 18.5 17.6446 19.25 17.6446 20.5C17.6446 21.75 16.6325 22.25 16.6325 23.75C16.6325 25.25 17.3916 26.5 19.1627 26.5C20.9337 26.5 24.7289 25.25 24.7289 21.5C24.7289 17.75 18.4036 15.75 18.4036 15.75C18.4036 15.75 19.1627 14.5 20.4277 14.5C21.6928 14.5 22.1988 15.5 23.7169 15.5C25.2349 15.5 26.5 14.75 26.5 13C26.5 11.25 25.2349 7.5 21.4398 7.5C17.6446 7.5 15.6205 13.5 15.6205 13.5C15.6205 13.5 14.3554 12.75 14.3554 11.5C14.3554 10.25 15.3675 9.75 15.3675 8.25C15.3675 6.75 14.6084 5.5 12.8373 5.5C11.0663 5.5 7.27108 6.75 7.27108 10.5Z" fill="#FFFBFB"/>
</svg>
