<svg width="149" height="40" viewBox="0 0 149 40" fill="none" xmlns="http://www.w3.org/2000/svg">
<path d="M19.5 13L12.5 20L19.5 27" stroke="white" stroke-width="3" stroke-linecap="round" stroke-linejoin="round"/>
<path d="M65.28 28.216V31H49.184V28.824L58.304 20.024C59.4133 18.9573 60.16 18.04 60.544 17.272C60.928 16.4827 61.12 15.6933 61.12 14.904C61.12 13.7307 60.704 12.824 59.872 12.184C59.0613 11.5227 57.888 11.192 56.352 11.192C53.8773 11.192 51.968 12.0027 50.624 13.624L48.448 11.736C49.3227 10.6693 50.464 9.83733 51.872 9.24C53.3013 8.64267 54.8907 8.344 56.64 8.344C58.9867 8.344 60.8533 8.90933 62.24 10.04C63.6267 11.1493 64.32 12.664 64.32 14.584C64.32 15.7787 64.064 16.9093 63.552 17.976C63.04 19.0427 62.0693 20.2587 60.64 21.624L53.792 28.216H65.28ZM76.9693 31.256C75.1986 31.256 73.6199 30.808 72.2333 29.912C70.8679 28.9947 69.7906 27.672 69.0013 25.944C68.2119 24.216 67.8173 22.168 67.8173 19.8C67.8173 17.432 68.2119 15.384 69.0013 13.656C69.7906 11.928 70.8679 10.616 72.2333 9.72C73.6199 8.80267 75.1986 8.344 76.9693 8.344C78.7186 8.344 80.2759 8.80267 81.6413 9.72C83.0279 10.616 84.1159 11.928 84.9053 13.656C85.6946 15.384 86.0893 17.432 86.0893 19.8C86.0893 22.168 85.6946 24.216 84.9053 25.944C84.1159 27.672 83.0279 28.9947 81.6413 29.912C80.2759 30.808 78.7186 31.256 76.9693 31.256ZM76.9693 28.408C78.7613 28.408 80.1906 27.672 81.2573 26.2C82.3453 24.728 82.8893 22.5947 82.8893 19.8C82.8893 17.0053 82.3453 14.872 81.2573 13.4C80.1906 11.928 78.7613 11.192 76.9693 11.192C75.1559 11.192 73.7053 11.928 72.6173 13.4C71.5506 14.872 71.0173 17.0053 71.0173 19.8C71.0173 22.5947 71.5506 24.728 72.6173 26.2C73.7053 27.672 75.1559 28.408 76.9693 28.408Z" fill="white"/>
<path d="M94.313 17.432C93.225 17.432 92.2437 17.208 91.369 16.76C90.5157 16.312 89.8437 15.6933 89.353 14.904C88.8837 14.1147 88.649 13.2293 88.649 12.248C88.649 11.2667 88.8837 10.3813 89.353 9.592C89.8437 8.80267 90.5157 8.19467 91.369 7.768C92.2437 7.32 93.225 7.096 94.313 7.096C95.401 7.096 96.3717 7.32 97.225 7.768C98.0997 8.19467 98.7717 8.80267 99.241 9.592C99.7317 10.3813 99.977 11.2667 99.977 12.248C99.977 13.2293 99.7317 14.1147 99.241 14.904C98.7717 15.6933 98.0997 16.312 97.225 16.76C96.3717 17.208 95.401 17.432 94.313 17.432ZM94.313 15.576C95.3583 15.576 96.201 15.2667 96.841 14.648C97.5023 14.0293 97.833 13.2293 97.833 12.248C97.833 11.2667 97.5023 10.4667 96.841 9.848C96.201 9.22933 95.3583 8.92 94.313 8.92C93.2677 8.92 92.4143 9.22933 91.753 9.848C91.113 10.4667 90.793 11.2667 90.793 12.248C90.793 13.2293 91.113 14.0293 91.753 14.648C92.4143 15.2667 93.2677 15.576 94.313 15.576Z" fill="white" fill-opacity="0.4"/>
<path d="M129.5 27L136.5 20L129.5 13" stroke="white" stroke-width="3" stroke-linecap="round" stroke-linejoin="round"/>
</svg>
