<svg width="32" height="32" viewBox="0 0 32 32" fill="none" xmlns="http://www.w3.org/2000/svg">
<path fill-rule="evenodd" clip-rule="evenodd" d="M26 2.33334L9.99999 6.33334V11.6667V23.6664C9.44288 23.248 8.75039 23 7.99999 23C6.15904 23 4.66666 24.4924 4.66666 26.3333C4.66666 28.1743 6.15904 29.6667 7.99999 29.6667C9.84094 29.6667 11.3333 28.1743 11.3333 26.3333V11.3333L24.6667 8.00001V20.3331C24.1095 19.9146 23.4171 19.6667 22.6667 19.6667C20.8257 19.6667 19.3333 21.1591 19.3333 23C19.3333 24.841 20.8257 26.3333 22.6667 26.3333C24.5076 26.3333 26 24.841 26 23L26 7.66668L26 3.00001L26 2.33334Z" fill="white"/>
</svg>
