<svg width="32" height="32" viewBox="0 0 32 32" fill="none" xmlns="http://www.w3.org/2000/svg">
<path fill-rule="evenodd" clip-rule="evenodd" d="M11.3333 2.66666C9.1242 2.66666 7.33334 4.45751 7.33334 6.66665V25.3333C7.33334 27.5425 9.1242 29.3333 11.3333 29.3333H20.6667C22.8758 29.3333 24.6667 27.5425 24.6667 25.3333V6.66666C24.6667 4.45752 22.8758 2.66666 20.6667 2.66666H11.3333ZM18 4H14C14 4.36819 14.2985 4.66667 14.6667 4.66667H17.3333C17.7015 4.66667 18 4.36819 18 4ZM16 28.6667C16.5523 28.6667 17 28.219 17 27.6667C17 27.1144 16.5523 26.6667 16 26.6667C15.4477 26.6667 15 27.1144 15 27.6667C15 28.219 15.4477 28.6667 16 28.6667ZM9.33333 7.33333C9.33333 6.59696 9.93029 6 10.6667 6H21.3333C22.0697 6 22.6667 6.59695 22.6667 7.33333V24.6667C22.6667 25.403 22.0697 26 21.3333 26H10.6667C9.93029 26 9.33333 25.403 9.33333 24.6667V7.33333Z" fill="white"/>
</svg>
