<svg width="32" height="32" viewBox="0 0 32 32" fill="none" xmlns="http://www.w3.org/2000/svg">
<path d="M10.3123 6.12036H11.0273C11.2241 6.12036 11.4128 6.19854 11.552 6.33769C12.0612 6.84689 12.1313 7.64817 11.7184 8.23811L11.5897 8.42185C10.9281 9.36704 10.8533 10.6037 11.3963 11.6217L13.3942 15.3678C14.3115 17.0878 14.1315 19.1864 12.9347 20.7251L11.4105 22.6849C11.2693 22.8665 10.9807 22.8041 10.927 22.5804L8.4165 12.1199C7.99699 10.372 8.20775 8.53202 9.01166 6.92419C9.25798 6.43155 9.7615 6.12036 10.3123 6.12036Z" fill="white"/>
<path d="M16.6824 21.4887H21.4887C22.7012 21.4887 23.6842 22.4716 23.6842 23.6842V24.233C23.6842 25.4456 22.7012 26.4285 21.4887 26.4285H15.396C14.377 26.4285 13.3997 26.0237 12.6792 25.3032L12.0672 24.6912C11.8274 24.4514 11.8603 24.0536 12.1363 23.8564L14.4492 22.2043C15.1008 21.7389 15.8816 21.4887 16.6824 21.4887Z" fill="white"/>
</svg>
