<svg width="32" height="32" viewBox="0 0 32 32" fill="none" xmlns="http://www.w3.org/2000/svg">
<path d="M22.9084 4H22.04C21.8009 4 21.5717 4.09496 21.4027 4.26398C20.7842 4.88246 20.699 5.8557 21.2006 6.57226L21.3568 6.79543C22.1604 7.94348 22.2512 9.44557 21.5918 10.6821L19.1651 15.2321C18.0509 17.3212 18.2695 19.8703 19.7231 21.7393L21.5745 24.1196C21.746 24.3402 22.0965 24.2644 22.1617 23.9927L25.2111 11.2872C25.7206 9.16408 25.4646 6.92925 24.4882 4.97635C24.189 4.37798 23.5774 4 22.9084 4Z" fill="white"/>
<path d="M15.1712 22.6667H9.33332C7.86057 22.6667 6.66666 23.8606 6.66666 25.3333V26C6.66666 27.4728 7.86057 28.6667 9.33332 28.6667H16.7337C17.9713 28.6667 19.1583 28.175 20.0335 27.2998L20.7768 26.5565C21.0681 26.2652 21.0282 25.782 20.6929 25.5426L17.8836 23.5359C17.0921 22.9706 16.1438 22.6667 15.1712 22.6667Z" fill="white"/>
</svg>
