<svg width="32" height="32" viewBox="0 0 32 32" fill="none" xmlns="http://www.w3.org/2000/svg">
<path fill-rule="evenodd" clip-rule="evenodd" d="M4.66667 20.5185H1.33333C0.596954 20.5185 0 19.9215 0 19.1851V14.1491C0 13.4127 0.596954 12.8158 1.33333 12.8158H4.66671L9.78849 8.33267C10.6506 7.57811 12 8.19031 12 9.33596V23.9984C12 25.144 10.6505 25.7562 9.78849 25.0017L4.66667 20.5185V20.5185Z" fill="white"/>
<path fill-rule="evenodd" clip-rule="evenodd" d="M15.4748 8.92275C15.7016 8.63268 16.1205 8.58137 16.4106 8.80814C18.5943 10.5153 20 13.1762 20 16.1651C20 18.9868 18.7471 21.5166 16.7695 23.227C16.491 23.4679 16.07 23.4374 15.8291 23.1589C15.5883 22.8804 15.6188 22.4594 15.8972 22.2185C17.5945 20.7506 18.6667 18.5835 18.6667 16.1651C18.6667 13.6039 17.4638 11.3239 15.5894 9.85857C15.2993 9.6318 15.248 9.21282 15.4748 8.92275Z" fill="white"/>
<path fill-rule="evenodd" clip-rule="evenodd" d="M20.2001 6.19051C20.463 5.93281 20.8851 5.93709 21.1428 6.20007C23.7344 8.8447 25.3333 12.4686 25.3333 16.4646C25.3203 20.2363 23.839 23.7797 21.4919 26.3605C21.2434 26.6321 20.8218 26.6509 20.5501 26.4024C20.2784 26.154 20.2596 25.7323 20.5081 25.4606C22.7156 23.0615 24.0131 19.9735 24 16.4646C24 12.8314 22.5477 9.53878 20.1905 7.13327C19.9328 6.87029 19.9371 6.4482 20.2001 6.19051Z" fill="white"/>
<path fill-rule="evenodd" clip-rule="evenodd" d="M25.7286 2.16675C26.0047 1.92317 26.4259 1.94953 26.6695 2.22563C29.95 5.95816 31.9875 10.9655 31.9999 16.3333C31.9887 21.4187 30.1597 26.1872 27.1824 29.8376C26.9492 30.1225 26.5292 30.1644 26.2443 29.9311C25.9594 29.6979 25.9175 29.2779 26.1507 28.993C29.0068 25.5173 30.6778 21.1756 30.6666 16.3333C30.679 11.2219 28.8167 6.66071 25.6697 3.10772C25.4261 2.83162 25.4525 2.41033 25.7286 2.16675Z" fill="white" fill-opacity="0.4"/>
</svg>
