<svg width="48" height="48" viewBox="0 0 48 48" fill="none" xmlns="http://www.w3.org/2000/svg">
<circle cx="24" cy="24" r="22" stroke="black" stroke-opacity="0.5" stroke-width="4"/>
<path d="M16.1136 22.525C17.3556 22.525 18.4626 22.759 19.4346 23.227C20.4246 23.695 21.1986 24.37 21.7566 25.252C22.3146 26.116 22.5936 27.115 22.5936 28.249C22.5936 29.437 22.2966 30.481 21.7026 31.381C21.1266 32.281 20.3256 32.983 19.2996 33.487C18.2916 33.973 17.1576 34.216 15.8976 34.216C13.3596 34.216 11.3976 33.397 10.0116 31.759C8.64357 30.121 7.95957 27.799 7.95957 24.793C7.95957 22.687 8.32857 20.896 9.06657 19.42C9.82257 17.926 10.8666 16.801 12.1986 16.045C13.5486 15.271 15.1146 14.884 16.8966 14.884C17.8146 14.884 18.6786 14.983 19.4886 15.181C20.2986 15.361 21.0006 15.631 21.5946 15.991L20.5686 18.097C19.6686 17.503 18.4626 17.206 16.9506 17.206C14.9886 17.206 13.4496 17.818 12.3336 19.042C11.2176 20.248 10.6596 22.012 10.6596 24.334C10.6596 24.622 10.6686 24.847 10.6866 25.009C11.2266 24.199 11.9646 23.587 12.9006 23.173C13.8546 22.741 14.9256 22.525 16.1136 22.525ZM15.7896 32.029C17.0316 32.029 18.0396 31.696 18.8136 31.03C19.5876 30.364 19.9746 29.473 19.9746 28.357C19.9746 27.241 19.5786 26.359 18.7866 25.711C18.0126 25.045 16.9686 24.712 15.6546 24.712C14.8086 24.712 14.0526 24.874 13.3866 25.198C12.7386 25.522 12.2256 25.963 11.8476 26.521C11.4876 27.079 11.3076 27.7 11.3076 28.384C11.3076 29.05 11.4786 29.662 11.8206 30.22C12.1806 30.76 12.6936 31.201 13.3596 31.543C14.0436 31.867 14.8536 32.029 15.7896 32.029ZM32.3456 34.216C30.8516 34.216 29.5196 33.838 28.3496 33.082C27.1976 32.308 26.2886 31.192 25.6226 29.734C24.9566 28.276 24.6236 26.548 24.6236 24.55C24.6236 22.552 24.9566 20.824 25.6226 19.366C26.2886 17.908 27.1976 16.801 28.3496 16.045C29.5196 15.271 30.8516 14.884 32.3456 14.884C33.8216 14.884 35.1356 15.271 36.2876 16.045C37.4576 16.801 38.3756 17.908 39.0416 19.366C39.7076 20.824 40.0406 22.552 40.0406 24.55C40.0406 26.548 39.7076 28.276 39.0416 29.734C38.3756 31.192 37.4576 32.308 36.2876 33.082C35.1356 33.838 33.8216 34.216 32.3456 34.216ZM32.3456 31.813C33.8576 31.813 35.0636 31.192 35.9636 29.95C36.8816 28.708 37.3406 26.908 37.3406 24.55C37.3406 22.192 36.8816 20.392 35.9636 19.15C35.0636 17.908 33.8576 17.287 32.3456 17.287C30.8156 17.287 29.5916 17.908 28.6736 19.15C27.7736 20.392 27.3236 22.192 27.3236 24.55C27.3236 26.908 27.7736 28.708 28.6736 29.95C29.5916 31.192 30.8156 31.813 32.3456 31.813Z" fill="black" fill-opacity="0.5"/>
</svg>
